<?xml version="1.0" encoding="utf-8"?>
<!-- Generator: Adobe Illustrator 26.0.3, SVG Export Plug-In . SVG Version: 6.00 Build 0)  -->
<svg version="1.1" id="Layer_1" xmlns="http://www.w3.org/2000/svg" xmlns:xlink="http://www.w3.org/1999/xlink" x="0px" y="0px"
	 viewBox="0 0 500 500" style="enable-background:new 0 0 500 500;" xml:space="preserve">
<style type="text/css">
	.st0{fill:#FFFFFF;}
	.st1{fill:none;stroke:#FFFFFF;stroke-width:15.7063;stroke-linecap:round;stroke-linejoin:round;stroke-miterlimit:10;}
	.st2{fill:none;stroke:#FFFFFF;stroke-width:16.3591;stroke-linecap:round;stroke-linejoin:round;stroke-miterlimit:10;}
	.st3{fill:none;stroke:#FFFFFF;stroke-width:14.6274;stroke-linecap:round;stroke-linejoin:round;stroke-miterlimit:10;}
	.st4{fill:none;stroke:#FFFFFF;stroke-width:15;stroke-linecap:round;stroke-linejoin:round;stroke-miterlimit:10;}
</style>
<g>
	<path class="st0" d="M144.9,230v-29.3c0-4.9-1.7-9-5.6-10.7c-2.7-1.2-4.6-3.7-4.6-6.8c0-3.1,1.9-5.8,4.6-6.8
		c3.9-1.7,5.6-6,5.6-10.7v-29.1c0-16.9,12.8-27.3,26.4-27.3h4.9c3.7,0,7,3.2,7,7.2c0,4.1-3.2,7.3-7,7.3h-4.9
		c-5.8,0-10.6,5.1-10.6,12.6v31.5c0,7.2-2.2,12.9-7.8,15.3c5.6,2.4,7.8,8.2,7.8,15.3v31.3c0,7.5,4.8,12.8,10.6,12.8h4.9
		c3.7,0,7,3.2,7,7.3c0,4.1-3.2,7.2-7,7.2h-4.9C157.7,257.1,144.9,246.8,144.9,230z"/>
	<path class="st0" d="M206.4,199c7.5,0,13.8,6.3,13.8,13.8c0,7.5-6.3,13.8-13.8,13.8s-13.8-6.3-13.8-13.8
		C192.6,205.3,198.9,199,206.4,199z"/>
	<path class="st0" d="M250,199c7.5,0,13.8,6.3,13.8,13.8c0,7.5-6.3,13.8-13.8,13.8s-13.8-6.3-13.8-13.8
		C236.2,205.3,242.5,199,250,199z"/>
	<path class="st0" d="M293.6,199c7.5,0,13.8,6.3,13.8,13.8c0,7.5-6.3,13.8-13.8,13.8s-13.8-6.3-13.8-13.8
		C279.8,205.3,286.1,199,293.6,199z"/>
	<path class="st0" d="M323.8,257.1c-3.7,0-7-3.1-7-7.2c0-4.1,3.2-7.3,7-7.3h4.9c5.8,0,10.7-5.3,10.7-12.8v-31.3
		c0-7.2,2.2-12.9,7.8-15.3c-5.6-2.4-7.8-8.2-7.8-15.3v-31.5c0-7.5-4.9-12.6-10.7-12.6h-4.9c-3.7,0-7-3.2-7-7.3c0-3.9,3.2-7.2,7-7.2
		h4.9c13.6,0,26.4,10.4,26.4,27.3v29.1c0,4.8,1.7,9,5.6,10.7c2.7,1,4.6,3.7,4.6,6.8c0,3.1-1.9,5.6-4.6,6.8
		c-3.9,1.7-5.6,5.8-5.6,10.7V230c0,16.9-12.8,27.1-26.4,27.1H323.8z"/>
</g>
<path class="st1" d="M408.3,300.1H91.7v-234h316.5V300.1z"/>
<polygon class="st2" points="408.6,300.1 250,300.1 91.4,300.1 41.8,434.7 250,434.7 458.2,434.7 "/>
<polygon class="st3" points="292.8,405.7 250,405.7 207.2,405.7 193.7,434.7 250,434.7 306.3,434.7 "/>
<g>
	<line class="st4" x1="112.6" y1="338.4" x2="135.5" y2="338.4"/>
	<line class="st4" x1="163" y1="338.4" x2="185.9" y2="338.4"/>
	<line class="st4" x1="213.3" y1="338.4" x2="236.3" y2="338.4"/>
	<line class="st4" x1="263.7" y1="338.4" x2="286.7" y2="338.4"/>
	<line class="st4" x1="314.1" y1="338.4" x2="337" y2="338.4"/>
	<line class="st4" x1="364.5" y1="338.4" x2="387.4" y2="338.4"/>
</g>
<g>
	<line class="st4" x1="112.6" y1="366.3" x2="135.5" y2="366.3"/>
	<line class="st4" x1="163" y1="366.3" x2="185.9" y2="366.3"/>
	<line class="st4" x1="213.3" y1="366.3" x2="236.3" y2="366.3"/>
	<line class="st4" x1="263.7" y1="366.3" x2="286.7" y2="366.3"/>
	<line class="st4" x1="314.1" y1="366.3" x2="337" y2="366.3"/>
	<line class="st4" x1="364.5" y1="366.3" x2="387.4" y2="366.3"/>
</g>
</svg>
