<?xml version="1.0" encoding="utf-8"?>
<!-- Generator: Adobe Illustrator 26.0.3, SVG Export Plug-In . SVG Version: 6.00 Build 0)  -->
<svg version="1.1" id="Layer_1" xmlns="http://www.w3.org/2000/svg" xmlns:xlink="http://www.w3.org/1999/xlink" x="0px" y="0px"
	 viewBox="0 0 500 500" style="enable-background:new 0 0 500 500;" xml:space="preserve">
<style type="text/css">
	.st0{fill:none;stroke:#FFFFFF;stroke-width:12;stroke-linecap:round;stroke-linejoin:round;stroke-miterlimit:10;}
</style>
<g>
	<rect x="41.8" y="66.1" class="st0" width="293.6" height="367.7"/>
	<line class="st0" x1="102.8" y1="188.6" x2="274" y2="188.6"/>
	<line class="st0" x1="102.8" y1="127.2" x2="274" y2="127.2"/>
	<line class="st0" x1="103.2" y1="250" x2="274.4" y2="250"/>
	<line class="st0" x1="102.8" y1="311.4" x2="274" y2="311.4"/>
	<line class="st0" x1="102.8" y1="372.8" x2="274" y2="372.8"/>
	<path class="st0" d="M458.2,272.8v-45.5h-33.8c-2.2-8.6-5.6-16.7-10-24.1l23.9-23.9l-32.2-32.2L382.2,171
		c-7.4-4.4-15.5-7.8-24.1-10v-33.8h-22.8v78.5c24.5,0,44.3,19.8,44.3,44.3s-19.8,44.3-44.3,44.3v78.5h22.8V339
		c8.6-2.2,16.7-5.6,24.1-10l23.9,23.9l32.2-32.2l-23.9-23.9c4.4-7.4,7.8-15.5,10-24.1h33.8V272.8z"/>
</g>
</svg>
