<?xml version="1.0" encoding="utf-8"?>
<!-- Generator: Adobe Illustrator 26.0.3, SVG Export Plug-In . SVG Version: 6.00 Build 0)  -->
<svg version="1.1" id="Layer_1" xmlns="http://www.w3.org/2000/svg" xmlns:xlink="http://www.w3.org/1999/xlink" x="0px" y="0px"
	 viewBox="0 0 500 500" style="enable-background:new 0 0 500 500;" xml:space="preserve">
<style type="text/css">
	.st0{fill:none;stroke:#FFFFFF;stroke-width:12;stroke-miterlimit:10;}
	.st1{fill:none;stroke:#FFFFFF;stroke-width:12;stroke-linecap:round;stroke-miterlimit:10;}
</style>
<g>
	<path class="st0" d="M224,159.8v59.3v59.3l98.9,45.6c8.8,4.1,18.9-2.4,18.9-12.1v-92.8v-92.8c0-9.7-10.1-16.2-18.9-12.1L224,159.8z
		"/>
	<path class="st0" d="M101,278.2h123V159.8H101c-18.4,0-33.3,14.9-33.3,33.3v51.9C67.7,263.3,82.6,278.2,101,278.2z"/>
	<path class="st0" d="M67.7,239.5H51.1c-5.2,0-9.3-4.2-9.3-9.3v-15.3c0-5.2,4.2-9.3,9.3-9.3h16.6V239.5z"/>
	<path class="st0" d="M116.1,278.2v41.5c0,3.1,3,5.3,6,4.5l57.8-16.7c2-0.6,3.4-2.4,3.4-4.5v-24.7H116.1z"/>
	<path class="st0" d="M201.2,300.7h-13.4c-2.5,0-4.5-2-4.5-4.5v-17.9h22.5v17.9C205.7,298.7,203.7,300.7,201.2,300.7z"/>
	<path class="st0" d="M130,321.9l23.7,60.6c1.1,2.8,3.7,4.6,6.7,4.6h23.8c5,0,8.5-5,6.7-9.7l-24.7-65.9L130,321.9z"/>
	<path class="st0" d="M341.5,189c16.6,0,30.1,13.5,30.1,30.1s-13.5,30.1-30.1,30.1"/>
	<g>
		<line class="st1" x1="410.7" y1="219.1" x2="458.2" y2="219.1"/>
		<line class="st1" x1="390.8" y1="261.7" x2="421.4" y2="298.1"/>
		<line class="st1" x1="390.8" y1="176.5" x2="421.4" y2="140.1"/>
	</g>
	<line class="st0" x1="310.4" y1="119.9" x2="310.4" y2="318.3"/>
</g>
</svg>
