<?xml version="1.0" encoding="utf-8"?>
<!-- Generator: Adobe Illustrator 26.0.3, SVG Export Plug-In . SVG Version: 6.00 Build 0)  -->
<svg version="1.1" id="Layer_1" xmlns="http://www.w3.org/2000/svg" xmlns:xlink="http://www.w3.org/1999/xlink" x="0px" y="0px"
	 viewBox="0 0 500 500" style="enable-background:new 0 0 500 500;" xml:space="preserve">
<style type="text/css">
	.st0{fill:none;stroke:#FFFFFF;stroke-width:15;stroke-linecap:round;stroke-linejoin:round;stroke-miterlimit:10;}
</style>
<polyline class="st0" points="188.6,450 50,450 50,50 338.5,50 338.5,193.6 "/>
<line class="st0" x1="105.9" y1="183.3" x2="292.2" y2="183.3"/>
<line class="st0" x1="105.9" y1="116.5" x2="292.2" y2="116.5"/>
<line class="st0" x1="105.9" y1="250.1" x2="222" y2="250.1"/>
<line class="st0" x1="105.9" y1="316.8" x2="188.6" y2="316.8"/>
<line class="st0" x1="105.9" y1="383.6" x2="188.6" y2="383.6"/>
<path class="st0" d="M450,358.7v-41.2h-30.8c-2.1-7.7-4.9-15-9.1-22l21.7-21.7l-29.4-29.4l-21.7,21.7c-6.6-3.8-14-7-22-9.1v-30.8
	h-40.9V257c-7.7,2.1-15,4.9-22,9.1l-21.7-21.7l-29,29.4l21.7,21.7c-3.8,6.6-7,14-9.1,22H227v41.2h30.8c2.1,7.7,4.9,15,9.1,22
	l-21.7,21.7l29.4,29.4l21.7-21.7c6.6,3.8,14,7,22,9.1v30.8h41.2v-30.8c7.7-2.1,15-4.9,22-9.1l21.7,21.7l29.4-29.4l-21.7-21.7
	c3.8-6.6,7-14,9.1-22H450z M338.5,383.9c-25.5,0-46.1-20.6-46.1-46.1s20.6-46.1,46.1-46.1s46.1,20.6,46.1,46.1
	S364,383.9,338.5,383.9z"/>
</svg>
