<?xml version="1.0" encoding="utf-8"?>
<!-- Generator: Adobe Illustrator 24.0.1, SVG Export Plug-In . SVG Version: 6.00 Build 0)  -->
<svg version="1.1" id="Layer_1" xmlns="http://www.w3.org/2000/svg" xmlns:xlink="http://www.w3.org/1999/xlink" x="0px" y="0px"
	 viewBox="0 0 337 184" style="enable-background:new 0 0 337 184;" xml:space="preserve">
<style type="text/css">
	.st0{fill:#2C3E50;}
	.st1{enable-background:new    ;}
	.st2{fill:#FFFFFF;}
	.st3{fill:none;stroke:#FFFFFF;stroke-width:2;stroke-miterlimit:10;}
	.st4{fill:none;stroke:#FFFFFF;stroke-width:2;stroke-linecap:round;stroke-linejoin:round;}
</style>
<title>aeo-project</title>
<g id="BG">
	<rect class="st0" width="337" height="184"/>
</g>
<g id="Layer_1_1_">
	<g class="st1">
		<path class="st2" d="M110.6,25.4h-4.1l-1.4,3.2h-1.9l5.3-11.6l5.3,11.6h-1.8L110.6,25.4z M109.9,23.9l-1.4-3.3l-1.4,3.3H109.9z"/>
		<path class="st2" d="M125.4,28.6l-0.6-6.6l-3.8,6.8l-3.8-6.8l-0.6,6.6h-1.7l1.2-11.8l5,8.9l5-8.9l1.2,11.8H125.4z"/>
		<path class="st2" d="M135.8,27l-0.3,1.6h-6.3V17.4h6.1l0.3,1.6H131v3.1h3.8v1.6H131V27H135.8z"/>
		<path class="st2" d="M143,28.6l-3.4-4.7v4.7h-1.7V17.4h2.7c2.5,0,4,1.5,4,3.5c0,1.7-1.1,2.9-2.8,3.3l3.3,4.4H143z M139.6,23.1h0.8
			c1.5,0,2.4-0.9,2.4-2.1c0-1.2-0.9-2.1-2.4-2.1h-0.8V23.1z"/>
		<path class="st2" d="M147,17.5l1.7-0.3v11.3H147V17.5z"/>
	</g>
	<g class="st1">
		<path class="st2" d="M150.8,23c0-3.2,2.6-5.8,6-5.8c1,0,2,0.2,2.8,0.7l-0.3,1.7c-0.7-0.5-1.6-0.8-2.6-0.8c-2.3,0-4.2,1.8-4.2,4.2
			c0,2.3,1.8,4.2,4.2,4.2c1,0,1.9-0.3,2.7-0.8l0.3,1.7c-0.9,0.5-2,0.8-3.1,0.8C153.4,28.8,150.8,26.2,150.8,23z"/>
	</g>
	<g class="st1">
		<path class="st2" d="M168,25.4h-4.1l-1.4,3.2h-1.9l5.3-11.6l5.3,11.6h-1.8L168,25.4z M167.3,23.9l-1.4-3.3l-1.4,3.3H167.3z"/>
		<path class="st2" d="M182.3,29.1l-7.9-8.1v7.6h-1.7V16.9l7.9,8.1v-7.5l1.7-0.3V29.1z"/>
		<path class="st2" d="M194.7,27l-0.3,1.6h-6.3V17.4h6.1l0.3,1.6h-4.6v3.1h3.8v1.6h-3.8V27H194.7z"/>
	</g>
	<g class="st1">
		<path class="st2" d="M203,25.4h-4.1l-1.4,3.2h-1.9l5.3-11.6l5.3,11.6h-1.8L203,25.4z M202.3,23.9l-1.4-3.3l-1.4,3.3H202.3z"/>
	</g>
	<g class="st1">
		<path class="st2" d="M216.2,22.3v5.5c-1,0.6-2.4,1-3.8,1c-3.3,0-5.9-2.6-5.9-5.8c0-3.2,2.7-5.8,6-5.8c1.1,0,2.2,0.3,3.2,0.8
			l-0.3,1.7c-0.8-0.5-1.8-0.8-2.9-0.8c-2.4,0-4.3,1.8-4.3,4.2c0,2.4,1.8,4.2,4.1,4.2c0.8,0,1.5-0.1,2.1-0.4v-2.9h-2.9l0.3-1.5H216.2
			z"/>
		<path class="st2" d="M224.9,27l-0.3,1.6h-6V17.5l1.7-0.3V27H224.9z"/>
	</g>
	<g class="st1">
		<path class="st2" d="M233.3,27l-0.3,1.6h-6.3V17.4h6.1l0.3,1.6h-4.6v3.1h3.8v1.6h-3.8V27H233.3z"/>
	</g>
	<path class="st3" d="M58.4,53.7h60c2.2,0,4,1.8,4,4v56.4l0,0h-68l0,0V57.7C54.4,55.4,56.2,53.7,58.4,53.7z"/>
	<rect x="54.4" y="114.1" class="st3" width="68" height="15.7"/>
	<path class="st3" d="M54.4,129.8h68l0,0v11.7c0,2.2-1.8,4-4,4h-60c-2.2,0-4-1.8-4-4V129.8L54.4,129.8z"/>
	<path class="st2" d="M82.4,120.5h12.1c0.8,0,1.5,0.7,1.5,1.5l0,0c0,0.8-0.7,1.5-1.5,1.5H82.4c-0.8,0-1.5-0.7-1.5-1.5l0,0
		C80.9,121.1,81.6,120.5,82.4,120.5z"/>
	<path class="st2" d="M82.4,136.2h12.1c0.8,0,1.5,0.7,1.5,1.5v0c0,0.8-0.7,1.5-1.5,1.5H82.4c-0.8,0-1.5-0.7-1.5-1.5v0
		C80.9,136.8,81.6,136.2,82.4,136.2z"/>
	<line class="st3" x1="88.4" y1="53.7" x2="88.4" y2="114.1"/>
	<circle class="st2" cx="80.9" cy="83.9" r="2.6"/>
	<circle class="st2" cx="95.9" cy="83.9" r="2.6"/>
	<path class="st3" d="M281.4,90.2l-23.2-11.5c-1.3-0.6-2.9-0.4-4,0.5c-3.1,2.7-8.1,4.5-13.8,4.5s-10.7-1.8-13.8-4.5
		c-1.1-1-2.7-1.2-4-0.5l-23.3,11.5c-1,0.5-1.5,1.8-0.9,2.8l7.6,15.1c0.5,1,1.8,1.5,2.8,0.9l7.5-3.7c1.1-0.5,2.3,0,2.8,1
		c0.1,0.3,0.2,0.6,0.2,0.9v33.5c0,2.3,1.9,4.2,4.2,4.2l0,0h33.8c2.3,0,4.2-1.9,4.2-4.2l0,0v-33.5c0-1.2,1-2.1,2.1-2.1
		c0.3,0,0.6,0.1,0.9,0.2l7.5,3.7c1,0.5,2.3,0.1,2.8-0.9c0,0,0,0,0-0.1l7.6-15.1C282.8,92,282.4,90.8,281.4,90.2z"/>
	<polyline class="st4" points="250.8,76.9 240.3,69.4 229.8,76.9 	"/>
	<path class="st4" d="M235.3,59.2"/>
	<path class="st4" d="M235.3,59.2c0-2.8,2.2-5,5-5c2.8,0,5,2.2,5,5c0,2.7-2.2,5-4.9,5"/>
	<line class="st4" x1="240.3" y1="69.4" x2="240.3" y2="64.2"/>
	<g class="st1">
		<path class="st2" d="M63.9,163.3H60l-0.6,1.7H58l3.2-8h1.5l3.2,8h-1.3L63.9,163.3z M60.3,162.2h3.2l-1.6-4.2L60.3,162.2z"/>
		<path class="st2" d="M66.8,156.9h5.4v1.1H68v2.3h4.1v1.1H68v2.5h4.2v1.1h-5.4V156.9z"/>
		<path class="st2" d="M77.4,156.8c2.4,0,4,1.8,4,4.1c0,2.4-1.6,4.1-4,4.1s-4-1.8-4-4.1C73.4,158.6,75,156.8,77.4,156.8z
			 M77.4,157.9c-1.7,0-2.8,1.3-2.8,3.1c0,1.8,1.1,3.1,2.8,3.1c1.7,0,2.8-1.3,2.8-3.1C80.2,159.2,79.1,157.9,77.4,157.9z"/>
		<path class="st2" d="M85.6,160.9c0-2.5,1.8-4.1,4.1-4.1c1.6,0,2.6,0.8,3.2,1.7l-1,0.5c-0.4-0.7-1.2-1.2-2.2-1.2
			c-1.6,0-2.9,1.3-2.9,3.1c0,1.8,1.2,3.1,2.9,3.1c0.9,0,1.7-0.5,2.2-1.2l1,0.5c-0.6,0.9-1.6,1.7-3.2,1.7
			C87.5,165.1,85.6,163.4,85.6,160.9z"/>
		<path class="st2" d="M94.1,156.9h1.1v8h-1.1V156.9z"/>
		<path class="st2" d="M96.5,162c0-1.7,1.1-3,2.9-3c1.8,0,2.9,1.4,2.9,3c0,1.7-1.1,3-2.9,3C97.7,165.1,96.5,163.7,96.5,162z
			 M101.3,162c0-1.1-0.6-2.1-1.8-2.1c-1.2,0-1.8,1-1.8,2.1c0,1.1,0.6,2.1,1.8,2.1C100.6,164.1,101.3,163.1,101.3,162z"/>
		<path class="st2" d="M103.8,163.4c0.4,0.4,1.2,0.8,1.9,0.8c0.8,0,1.2-0.3,1.2-0.8c0-0.6-0.7-0.8-1.4-0.9c-1-0.2-2.1-0.5-2.1-1.7
			c0-0.9,0.8-1.7,2.2-1.7c1,0,1.7,0.4,2.2,0.8l-0.5,0.8c-0.3-0.4-1-0.7-1.7-0.7c-0.7,0-1.2,0.3-1.2,0.8c0,0.5,0.6,0.7,1.3,0.8
			c1,0.2,2.2,0.5,2.2,1.8c0,1-0.8,1.8-2.3,1.8c-1,0-1.8-0.3-2.4-0.9L103.8,163.4z"/>
		<path class="st2" d="M111.9,159c1.7,0,2.8,1.4,2.8,3.1v0.3h-4.6c0.1,1,0.8,1.8,2,1.8c0.6,0,1.3-0.2,1.7-0.7l0.5,0.7
			c-0.6,0.6-1.4,0.9-2.3,0.9c-1.7,0-3-1.2-3-3C109,160.3,110.2,159,111.9,159z M110.1,161.6h3.5c0-0.8-0.5-1.7-1.8-1.7
			C110.8,159.9,110.2,160.8,110.1,161.6z"/>
		<path class="st2" d="M116.3,163.6v-3.6h-1v-0.9h1v-1.6h1.1v1.6h1.2v0.9h-1.2v3.3c0,0.4,0.2,0.7,0.6,0.7c0.3,0,0.5-0.1,0.6-0.2
			l0.3,0.8c-0.2,0.2-0.6,0.4-1.1,0.4C116.8,165.1,116.3,164.6,116.3,163.6z"/>
	</g>
	<g class="st1">
		<path class="st2" d="M214.4,163.3h-3.9l-0.6,1.7h-1.3l3.2-8h1.5l3.2,8h-1.3L214.4,163.3z M210.9,162.2h3.2l-1.6-4.2L210.9,162.2z"
			/>
		<path class="st2" d="M217.4,156.9h5.4v1.1h-4.2v2.3h4.1v1.1h-4.1v2.5h4.2v1.1h-5.4V156.9z"/>
		<path class="st2" d="M227.9,156.8c2.4,0,4,1.8,4,4.1c0,2.4-1.6,4.1-4,4.1s-4-1.8-4-4.1C223.9,158.6,225.6,156.8,227.9,156.8z
			 M227.9,157.9c-1.7,0-2.8,1.3-2.8,3.1c0,1.8,1.1,3.1,2.8,3.1c1.7,0,2.8-1.3,2.8-3.1C230.7,159.2,229.6,157.9,227.9,157.9z"/>
	</g>
	<g class="st1">
		<path class="st2" d="M238.5,158H236v-1.1h6.2v1.1h-2.5v6.9h-1.2V158z"/>
	</g>
	<g class="st1">
		<path class="st2" d="M242.4,159.1h1.1v0.9c0.4-0.6,1.1-1,1.9-1v1.1c-0.1,0-0.2,0-0.4,0c-0.5,0-1.3,0.4-1.5,0.8v4h-1.1V159.1z"/>
		<path class="st2" d="M250.4,164.1c-0.4,0.5-1.2,0.9-2.1,0.9c-1.2,0-1.8-0.6-1.8-1.8v-4.1h1.1v3.7c0,1,0.5,1.2,1.2,1.2
			c0.7,0,1.3-0.4,1.6-0.8v-4.2h1.1v5.8h-1.1V164.1z"/>
		<path class="st2" d="M255.7,159c1.7,0,2.8,1.4,2.8,3.1v0.3H254c0.1,1,0.8,1.8,2,1.8c0.6,0,1.3-0.2,1.7-0.7l0.5,0.7
			c-0.6,0.6-1.4,0.9-2.3,0.9c-1.7,0-3-1.2-3-3C252.8,160.3,254,159,255.7,159z M253.9,161.6h3.5c0-0.8-0.5-1.7-1.8-1.7
			C254.6,159.9,254,160.8,253.9,161.6z"/>
		<path class="st2" d="M259.9,156.9h5.4v1.1h-4.2v2.3h4.1v1.1h-4.1v3.5h-1.2V156.9z"/>
		<path class="st2" d="M266.4,157.5c0-0.4,0.3-0.7,0.7-0.7c0.4,0,0.7,0.3,0.7,0.7s-0.3,0.7-0.7,0.7
			C266.7,158.2,266.4,157.9,266.4,157.5z M266.6,159.1h1.1v5.8h-1.1V159.1z"/>
		<path class="st2" d="M269.6,163.6v-3.6h-1v-0.9h1v-1.6h1.1v1.6h1.2v0.9h-1.2v3.3c0,0.4,0.2,0.7,0.6,0.7c0.3,0,0.5-0.1,0.6-0.2
			l0.3,0.8c-0.2,0.2-0.6,0.4-1.1,0.4C270,165.1,269.6,164.6,269.6,163.6z"/>
	</g>
</g>
</svg>
