<?xml version="1.0" encoding="utf-8"?>
<!-- Generator: Adobe Illustrator 24.0.1, SVG Export Plug-In . SVG Version: 6.00 Build 0)  -->
<svg version="1.1" id="Layer_1" xmlns="http://www.w3.org/2000/svg" xmlns:xlink="http://www.w3.org/1999/xlink" x="0px" y="0px"
	 viewBox="0 0 337 184" style="enable-background:new 0 0 337 184;" xml:space="preserve">
<style type="text/css">
	.st0{fill:#17CE6E;}
	.st1{fill:#FFFFFF;}
</style>
<title>aeo-project</title>
<g id="BG">
	<rect class="st0" width="337" height="184"/>
</g>
<g>
	<path class="st1" d="M94,101.1V82.9c0-0.7,0.4-1.2,1.2-1.2h1.1c0.7,0,1.2,0.4,1.2,1.2v18.2c0,5.7,3.9,8.6,8.5,8.6
		c4.5,0,8.5-2.8,8.5-8.6V82.9c0-0.7,0.4-1.2,1.2-1.2h1.1c0.7,0,1.2,0.4,1.2,1.2v18.2c0,7.7-5.5,11.7-11.9,11.7
		C99.5,112.8,94,108.8,94,101.1z"/>
	<g>
		<path class="st0" d="M104.3,67.9l-19.9,9.9c-0.7,0.3-0.7,1.4,0,1.7l20.1,8.6c0.9,0.4,1.9,0.4,2.8,0l20.1-8.6
			c0.7-0.3,0.7-1.3,0-1.7l-19.9-9.9C106.5,67.4,105.3,67.4,104.3,67.9z"/>
		<path class="st1" d="M105.9,90c-0.7,0-1.4-0.1-2-0.4L83.8,81c-0.9-0.4-1.5-1.2-1.5-2.2c0-1,0.5-1.9,1.4-2.3l19.9-9.9
			c1.5-0.7,3.1-0.7,4.6,0l19.9,9.9c0.9,0.4,1.4,1.3,1.4,2.3c0,1-0.6,1.8-1.5,2.2L108,89.6C107.3,89.9,106.6,90,105.9,90z M86.4,78.6
			l18.7,8c0.5,0.2,1.1,0.2,1.6,0l18.7-8l-18.6-9.2c-0.6-0.3-1.2-0.3-1.8,0l0,0L86.4,78.6z"/>
	</g>
	<ellipse class="st1" cx="105.9" cy="78" rx="2.8" ry="1.9"/>
	<path class="st1" d="M91.1,91.6c0-0.2,0-0.3,0.1-0.5c0.4-0.4,0.6-0.9,0.6-1.5c0-1.3-1-2.3-2.3-2.3c-1.3,0-2.3,1-2.3,2.3
		c0,0.6,0.2,1.1,0.6,1.5c0.1,0.1,0.2,0.3,0.1,0.5l-1,5.5c-0.1,0.3,0.2,0.6,0.5,0.6h2.1h2.1c0.3,0,0.6-0.3,0.5-0.6L91.1,91.6z"/>
	<g>
		<path class="st1" d="M89.5,89.8c-0.6,0-1.1-0.5-1.1-1.1v-5.9c0-0.5,0.3-0.9,0.8-1l15.6-4.5c0.6-0.2,1.2,0.2,1.3,0.7
			c0.2,0.6-0.2,1.2-0.7,1.3l-14.8,4.3v5.1C90.6,89.3,90.1,89.8,89.5,89.8z"/>
	</g>
	<path class="st1" d="M123.4,108.7c-0.4-0.7,0-1.3,0.7-1.5l0.8-0.2c0.7-0.2,1,0.1,1.5,0.7c0.9,1.4,2.6,2.2,4.6,2.2
		c2.4,0,4.3-1.4,4.3-3.5c0-1.7-1.2-2.7-3.1-3.3l-3.1-1c-3.1-1-5.2-2.7-5.2-5.8c0-3.4,2.7-6.3,7-6.3c2.5,0,5,1,6.3,3.6
		c0.4,0.7,0,1.3-0.8,1.5l-0.7,0.2c-0.7,0.2-1-0.1-1.5-0.7c-0.8-1.1-2.1-1.7-3.3-1.7c-2.4,0-3.8,1.6-3.8,3.4c0,1.8,1.5,2.7,3,3.1
		l3.2,1c3.9,1.2,5.1,3.6,5.1,6c0,4-3.5,6.3-7.6,6.3C127.7,112.8,124.8,111.4,123.4,108.7z"/>
	<path class="st1" d="M142.1,101.5c0-6.3,4.9-11.5,11.7-11.5c5.3,0,10.3,3.2,10.9,10.2c0.1,0.7-0.3,1.2-1.1,1.2h-18
		c-0.3,4.8,3.5,8.4,8.9,8.4c2.3,0,4.5-0.7,6.5-2.2c0.6-0.4,1.1-0.3,1.6,0.1l0.3,0.3c0.5,0.5,0.5,1.2-0.3,1.8
		c-2.5,2.1-5.5,2.8-8.3,2.8C146.8,112.8,142.1,107.7,142.1,101.5z M161.3,98.8c-1-4.5-4.4-5.8-7.4-5.8c-3.4,0-6.8,1.8-8.1,5.8H161.3
		z"/>
	<path class="st1" d="M196.3,111.1V91.7c0-0.7,0.4-1.2,1.1-1.2h1c0.7,0,1.2,0.4,1.2,1.2v4.1c0.8-3.5,3.2-5.8,6.4-5.8
		c0.3,0,0.7,0,1,0.1c0.7,0.1,0.8,0.7,0.8,1.3v0.9c0,0.8-0.3,1.2-0.9,1c-0.4,0-0.8-0.1-1.2-0.1c-2.8,0-6.1,2.4-6.2,10.7v7.1
		c0,0.7-0.4,1.2-1.2,1.2h-1C196.7,112.3,196.3,111.9,196.3,111.1z"/>
	<path class="st1" d="M209.2,101.6c0-6.4,4.4-11.6,12.3-11.6c1.6,0,4.1,0.4,6.7,1.9c0.7,0.4,0.8,1,0.3,1.7l-0.3,0.4
		c-0.4,0.6-0.9,0.7-1.6,0.3c-2.1-1.2-4.1-1.3-5-1.3c-5.4,0-9,3.6-9,8.4c0,4.8,3.7,8.4,9,8.4c0.8,0,2.9-0.1,5-1.3
		c0.7-0.3,1.2-0.3,1.6,0.3l0.3,0.4c0.4,0.6,0.2,1.4-0.9,2c-2.3,1.3-4.6,1.6-6.1,1.6C213.8,112.8,209.3,107.8,209.2,101.6z"/>
	<path class="st1" d="M234.1,111.1V81.9c0-0.7,0.4-1.2,1.1-1.2h1c0.7,0,1.2,0.4,1.2,1.2v13.2c1.2-3.4,4.4-5.1,7.6-5.1
		c4.6,0,8.6,2.7,8.6,9.9v11.2c0,0.7-0.4,1.2-1.2,1.2h-1c-0.7,0-1.2-0.4-1.2-1.2V100c0-5.3-2.8-6.9-5.5-6.9c-2.4,0-7.3,1.7-7.4,8.7
		v9.4c0,0.7-0.4,1.2-1.2,1.2h-1C234.6,112.3,234.1,111.9,234.1,111.1z"/>
	<path class="st1" d="M191.6,115.5l-4.2-5.9c2.1-2.1,3.5-5,3.5-8.2c0-6.4-5.2-11.5-11.5-11.5s-11.5,5.2-11.5,11.5
		s5.2,11.5,11.5,11.5c2,0,3.9-0.5,5.5-1.4l4.1,5.9c0.3,0.4,0.8,0.7,1.3,0.7c0.3,0,0.6-0.1,0.9-0.3
		C191.9,117.2,192.1,116.2,191.6,115.5z M171,101.4c0-4.6,3.7-8.3,8.3-8.3c4.6,0,8.3,3.7,8.3,8.3c0,4.6-3.7,8.3-8.3,8.3
		C174.7,109.7,171,106,171,101.4z"/>
</g>
</svg>
