<?xml version="1.0" encoding="utf-8"?>
<!-- Generator: Adobe Illustrator 26.0.2, SVG Export Plug-In . SVG Version: 6.00 Build 0)  -->
<svg version="1.1" id="Layer_1" xmlns="http://www.w3.org/2000/svg" xmlns:xlink="http://www.w3.org/1999/xlink" x="0px" y="0px"
	 viewBox="0 0 300 300" style="enable-background:new 0 0 300 300;" xml:space="preserve">
<style type="text/css">
	.st0{fill:none;stroke:#F7B731;stroke-width:10;stroke-miterlimit:10;}
	.st1{fill:none;stroke:#F7B731;stroke-width:10;stroke-linecap:round;stroke-linejoin:round;stroke-miterlimit:10;}
</style>
<circle id="outer-circle" class="st0" cx="150" cy="150" r="140.7"/>
<g id="light-bulb">
	<path id="bulb-path" class="st1" d="M207.9,142.8c0-32-25.9-57.9-57.9-57.9s-57.9,25.9-57.9,57.9c0,23.3,13.8,43.4,33.6,52.6V225
		h48.6v-29.6C194.1,186.2,207.9,166.1,207.9,142.8z"/>
	<line id="bright-1" class="st1" x1="150" y1="64.8" x2="150" y2="47.1"/>
	<line id="bright-2" class="st1" x1="93.5" y1="86.2" x2="81" y2="73.7"/>
	<line id="bright-3" class="st1" x1="72.1" y1="142.8" x2="54.4" y2="142.8"/>
	<line id="bright-4" class="st1" x1="227.9" y1="142.8" x2="245.6" y2="142.8"/>
	<line id="bright-5" class="st1" x1="206.5" y1="86.2" x2="219" y2="73.7"/>
	<line id="bulb-base-1" class="st1" x1="129.7" y1="238.9" x2="170.3" y2="238.9"/>
	<line id="bulb-base-2" class="st1" x1="137.9" y1="252.9" x2="162.1" y2="252.9"/>
	<path id="bulb-reflection" class="st1" d="M162.8,107.2c11.5,4.9,20.4,14.7,24.2,26.8"/>
</g>
</svg>
