<svg xmlns="http://www.w3.org/2000/svg" viewBox="0 0 337 184"><defs><style>.cls-1{fill:#2c3e50;}.cls-2{font-size:16px;font-family:NeueKabel-Medium, Neue Kabel;}.cls-10,.cls-2,.cls-8{fill:#fff;}.cls-3{letter-spacing:-0.02em;}.cls-4{letter-spacing:-0.04em;}.cls-5{letter-spacing:0em;}.cls-6{letter-spacing:-0.01em;}.cls-7,.cls-9{fill:none;stroke:#fff;stroke-width:2px;}.cls-7{stroke-miterlimit:10;}.cls-9{stroke-linecap:round;stroke-linejoin:round;}.cls-10{font-size:12px;font-family:ProximaNova-Medium, Proxima Nova;}.cls-11{letter-spacing:-0.08em;}.cls-12{letter-spacing:0em;}</style></defs><title>aeo-project</title><g id="BG"><rect class="cls-1" width="337" height="184"/></g><g id="Layer_1" data-name="Layer 1"><text class="cls-2" transform="translate(103 28.59)">AMERI<tspan class="cls-3" x="47.06" y="0">C</tspan><tspan x="57.44" y="0">AN E</tspan><tspan class="cls-4" x="92.43" y="0">A</tspan><tspan class="cls-5" x="102.75" y="0">GL</tspan><tspan class="cls-6" x="122.49" y="0">E</tspan></text><path class="cls-7" d="M58.42,53.65h60a4,4,0,0,1,4,4v56.41a0,0,0,0,1,0,0h-68a0,0,0,0,1,0,0V57.65A4,4,0,0,1,58.42,53.65Z"/><rect class="cls-7" x="54.42" y="114.07" width="68.03" height="15.7"/><path class="cls-7" d="M54.42,129.77h68a0,0,0,0,1,0,0v11.7a4,4,0,0,1-4,4h-60a4,4,0,0,1-4-4v-11.7A0,0,0,0,1,54.42,129.77Z"/><rect class="cls-8" x="80.95" y="120.46" width="14.98" height="2.92" rx="1.46" ry="1.46"/><rect class="cls-8" x="80.95" y="136.16" width="14.98" height="2.92" rx="1.46" ry="1.46"/><line class="cls-7" x1="88.43" y1="53.65" x2="88.43" y2="114.07"/><circle class="cls-8" cx="80.95" cy="83.86" r="2.63"/><circle class="cls-8" cx="95.92" cy="83.86" r="2.63"/><path class="cls-7" d="M281.41,90.22,258.16,78.7a3.65,3.65,0,0,0-4,.52c-3.05,2.72-8.08,4.49-13.79,4.49s-10.74-1.77-13.79-4.49a3.65,3.65,0,0,0-4-.52L199.25,90.22a2.13,2.13,0,0,0-.95,2.84l7.55,15.12a2.14,2.14,0,0,0,2.84.95l7.47-3.66a2.11,2.11,0,0,1,3,1.9v33.48a4.22,4.22,0,0,0,4.22,4.22h33.8a4.22,4.22,0,0,0,4.22-4.22V107.36a2.11,2.11,0,0,1,3-1.9l7.47,3.65a2.1,2.1,0,0,0,2.84-1l7.56-15.1A2.11,2.11,0,0,0,281.41,90.22Z"/><polyline class="cls-9" points="250.82 76.87 240.33 69.43 229.83 76.87"/><path class="cls-9" d="M235.28,59.17"/><path class="cls-9" d="M235.28,59.17a5,5,0,1,1,5.05,5"/><line class="cls-9" x1="240.33" y1="69.43" x2="240.33" y2="64.22"/><text class="cls-10" transform="translate(57.95 164.93)">AEO Closet</text><text class="cls-10" transform="translate(208.49 164.93)">AEO <tspan class="cls-11" x="27.14" y="0">T</tspan><tspan class="cls-12" x="33.06" y="0">rueFit</tspan></text></g></svg>