<?xml version="1.0" encoding="utf-8"?>
<!-- Generator: Adobe Illustrator 24.2.3, SVG Export Plug-In . SVG Version: 6.00 Build 0)  -->
<svg version="1.1" id="Layer_1" xmlns="http://www.w3.org/2000/svg" xmlns:xlink="http://www.w3.org/1999/xlink" x="0px" y="0px"
	 viewBox="0 0 337 184" style="enable-background:new 0 0 337 184;" xml:space="preserve">
<style type="text/css">
	.st0{fill:#2D2D2D;}
	.st1{fill:#12718D;}
	.st2{fill:#FFFFFF;}
</style>
<rect class="st0" width="337" height="184"/>
<g>
	<g>
		<path class="st1" d="M95.2,86.5c0-1.1-0.4-1.9-1.2-2.5c-0.8-0.6-2.2-1.2-4.2-1.9c-2-0.6-3.6-1.3-4.8-1.9c-3.2-1.7-4.8-4-4.8-7
			c0-1.5,0.4-2.9,1.3-4.1c0.9-1.2,2.1-2.1,3.7-2.8c1.6-0.7,3.4-1,5.4-1c2,0,3.8,0.4,5.4,1.1c1.6,0.7,2.8,1.8,3.7,3.1
			c0.9,1.3,1.3,2.8,1.3,4.5h-5.8c0-1.3-0.4-2.3-1.2-3c-0.8-0.7-1.9-1.1-3.4-1.1c-1.4,0-2.5,0.3-3.3,0.9c-0.8,0.6-1.2,1.4-1.2,2.4
			c0,0.9,0.5,1.7,1.4,2.3c0.9,0.6,2.3,1.2,4.1,1.7c3.3,1,5.7,2.2,7.2,3.7c1.5,1.5,2.3,3.3,2.3,5.5c0,2.4-0.9,4.3-2.8,5.7
			c-1.8,1.4-4.3,2.1-7.4,2.1c-2.2,0-4.1-0.4-5.9-1.2c-1.8-0.8-3.1-1.9-4.1-3.3c-0.9-1.4-1.4-3-1.4-4.8h5.8c0,3.1,1.9,4.7,5.6,4.7
			c1.4,0,2.5-0.3,3.2-0.8S95.2,87.5,95.2,86.5z"/>
		<path class="st1" d="M126.1,70.5h-8.6v23.4h-5.8V70.5h-8.5v-4.7h22.9V70.5z"/>
		<path class="st1" d="M142.9,88.1h-10.2l-1.9,5.8h-6.2l10.5-28.1h5.4L151,93.9h-6.2L142.9,88.1z M134.3,83.4h7l-3.5-10.5
			L134.3,83.4z"/>
		<path class="st1" d="M175.9,90.3c-1,1.2-2.5,2.2-4.4,2.9c-1.9,0.7-4,1-6.3,1c-2.4,0-4.6-0.5-6.4-1.6c-1.8-1.1-3.2-2.6-4.2-4.6
			c-1-2-1.5-4.4-1.5-7.1V79c0-2.8,0.5-5.2,1.4-7.3c0.9-2.1,2.3-3.6,4.1-4.7c1.8-1.1,3.9-1.6,6.3-1.6c3.3,0,5.9,0.8,7.8,2.4
			c1.9,1.6,3,3.9,3.3,6.9h-5.6c-0.3-1.6-0.8-2.8-1.7-3.5c-0.9-0.7-2.1-1.1-3.6-1.1c-2,0-3.5,0.7-4.5,2.2c-1,1.5-1.6,3.7-1.6,6.6v1.8
			c0,2.9,0.6,5.2,1.7,6.7c1.1,1.5,2.8,2.3,4.9,2.3c2.2,0,3.7-0.5,4.7-1.4v-4.8h-5.3v-4.3h11.1V90.3z"/>
		<path class="st1" d="M197.5,81.7h-11.1v7.5h13v4.7h-18.8V65.8h18.8v4.7h-13v6.7h11.1V81.7z"/>
		<path class="st1" d="M228.5,88.1h-10.2l-1.9,5.8h-6.2l10.5-28.1h5.4l10.5,28.1h-6.2L228.5,88.1z M220,83.4h7l-3.5-10.5L220,83.4z"
			/>
		<path class="st1" d="M256.2,81.7h-11.1v7.5h13v4.7h-18.8V65.8h18.8v4.7h-13v6.7h11.1V81.7z"/>
	</g>
	<g>
		<path class="st2" d="M81.1,114.5v4.6h-1.6v-11.8h4.3c1.3,0,2.3,0.3,3,1c0.7,0.7,1.1,1.5,1.1,2.6c0,1.1-0.4,2-1.1,2.6
			c-0.7,0.6-1.7,0.9-3.1,0.9H81.1z M81.1,113.2h2.8c0.8,0,1.5-0.2,1.9-0.6c0.4-0.4,0.7-1,0.7-1.7c0-0.7-0.2-1.3-0.7-1.7
			c-0.4-0.4-1.1-0.6-1.8-0.7h-2.9V113.2z"/>
		<path class="st2" d="M89.8,108c0-0.2,0.1-0.4,0.2-0.6c0.1-0.2,0.4-0.3,0.7-0.3c0.3,0,0.5,0.1,0.7,0.3c0.2,0.2,0.2,0.4,0.2,0.6
			c0,0.2-0.1,0.4-0.2,0.6c-0.2,0.2-0.4,0.2-0.7,0.2c-0.3,0-0.5-0.1-0.7-0.2C89.8,108.4,89.8,108.2,89.8,108z M91.4,119.1h-1.5v-8.8
			h1.5V119.1z"/>
		<path class="st2" d="M95.8,108.2v2.1h1.6v1.2h-1.6v5.4c0,0.4,0.1,0.6,0.2,0.8c0.1,0.2,0.4,0.3,0.7,0.3c0.2,0,0.4,0,0.7-0.1v1.2
			c-0.4,0.1-0.8,0.2-1.2,0.2c-0.7,0-1.2-0.2-1.5-0.6c-0.3-0.4-0.5-1-0.5-1.7v-5.4h-1.6v-1.2h1.6v-2.1H95.8z"/>
		<path class="st2" d="M101.2,108.2v2.1h1.6v1.2h-1.6v5.4c0,0.4,0.1,0.6,0.2,0.8s0.4,0.3,0.7,0.3c0.2,0,0.4,0,0.7-0.1v1.2
			c-0.4,0.1-0.8,0.2-1.1,0.2c-0.7,0-1.2-0.2-1.5-0.6c-0.3-0.4-0.5-1-0.5-1.7v-5.4h-1.6v-1.2h1.6v-2.1H101.2z"/>
		<path class="st2" d="M109.7,116.8c0-0.4-0.2-0.7-0.5-0.9c-0.3-0.2-0.8-0.4-1.6-0.6c-0.8-0.2-1.4-0.4-1.8-0.6
			c-0.4-0.2-0.8-0.5-1-0.8c-0.2-0.3-0.3-0.7-0.3-1.1c0-0.7,0.3-1.3,0.9-1.8c0.6-0.5,1.4-0.7,2.3-0.7c1,0,1.8,0.3,2.4,0.8
			c0.6,0.5,0.9,1.2,0.9,2h-1.5c0-0.4-0.2-0.8-0.5-1.1c-0.3-0.3-0.8-0.4-1.3-0.4c-0.5,0-1,0.1-1.3,0.4c-0.3,0.2-0.5,0.5-0.5,0.9
			c0,0.4,0.1,0.6,0.4,0.8c0.3,0.2,0.8,0.4,1.6,0.5c0.7,0.2,1.4,0.4,1.8,0.6c0.5,0.2,0.8,0.5,1,0.8c0.2,0.3,0.3,0.7,0.3,1.2
			c0,0.8-0.3,1.4-0.9,1.9c-0.6,0.5-1.4,0.7-2.4,0.7c-0.7,0-1.3-0.1-1.9-0.4c-0.5-0.2-1-0.6-1.3-1c-0.3-0.4-0.5-0.9-0.5-1.4h1.5
			c0,0.5,0.2,0.9,0.6,1.2c0.4,0.3,0.9,0.4,1.5,0.4c0.6,0,1-0.1,1.4-0.3C109.6,117.4,109.7,117.1,109.7,116.8z"/>
		<path class="st2" d="M120.6,114.8c0,1.3-0.3,2.4-0.9,3.2c-0.6,0.8-1.4,1.2-2.5,1.2c-1.1,0-2-0.4-2.6-1.2l-0.1,1h-1.4v-12.4h1.5
			v4.6c0.6-0.8,1.4-1.1,2.5-1.1c1.1,0,1.9,0.4,2.5,1.2c0.6,0.8,0.9,1.9,0.9,3.3V114.8z M119.1,114.6c0-1-0.2-1.8-0.6-2.4
			c-0.4-0.6-1-0.8-1.7-0.8c-1,0-1.7,0.5-2.1,1.4v3.8c0.5,0.9,1.2,1.4,2.1,1.4c0.7,0,1.3-0.3,1.7-0.8
			C118.9,116.6,119.1,115.7,119.1,114.6z"/>
		<path class="st2" d="M127.9,118.2c-0.6,0.7-1.4,1-2.6,1c-0.9,0-1.6-0.3-2.1-0.8c-0.5-0.5-0.7-1.3-0.7-2.4v-5.7h1.5v5.7
			c0,1.3,0.5,2,1.6,2c1.1,0,1.9-0.4,2.3-1.3v-6.4h1.5v8.8h-1.4L127.9,118.2z"/>
		<path class="st2" d="M135.9,111.7c-0.2,0-0.5-0.1-0.7-0.1c-1,0-1.6,0.4-2,1.3v6.2h-1.5v-8.8h1.5l0,1c0.5-0.8,1.2-1.2,2.1-1.2
			c0.3,0,0.5,0,0.7,0.1V111.7z"/>
		<path class="st2" d="M136.9,114.6c0-1.4,0.3-2.5,0.9-3.3c0.6-0.8,1.5-1.2,2.5-1.2c1.1,0,1.9,0.4,2.5,1.1l0.1-1h1.4v8.6
			c0,1.1-0.3,2-1,2.7c-0.7,0.7-1.6,1-2.7,1c-0.6,0-1.3-0.1-1.9-0.4c-0.6-0.3-1.1-0.6-1.4-1.1l0.8-0.9c0.6,0.8,1.4,1.2,2.4,1.2
			c0.7,0,1.3-0.2,1.7-0.6c0.4-0.4,0.6-1,0.6-1.7v-0.8c-0.6,0.7-1.4,1-2.5,1c-1,0-1.9-0.4-2.5-1.2
			C137.2,117.2,136.9,116.1,136.9,114.6z M138.4,114.8c0,1,0.2,1.8,0.6,2.3c0.4,0.6,1,0.8,1.7,0.8c0.9,0,1.6-0.4,2.1-1.3v-4
			c-0.5-0.8-1.1-1.3-2.1-1.3c-0.7,0-1.3,0.3-1.7,0.9C138.6,112.8,138.4,113.7,138.4,114.8z"/>
		<path class="st2" d="M148,111.4c0.7-0.8,1.5-1.2,2.6-1.2c1.9,0,2.8,1,2.8,3.1v5.8h-1.5v-5.8c0-0.6-0.1-1.1-0.4-1.4
			c-0.3-0.3-0.7-0.5-1.3-0.5c-0.5,0-0.9,0.1-1.3,0.4c-0.4,0.3-0.7,0.6-0.9,1v6.2h-1.5v-12.4h1.5V111.4z"/>
		<path class="st2" d="M155.6,121.4l-0.9-0.6c0.5-0.7,0.8-1.4,0.8-2.2v-1.4h1.5v1.2c0,0.5-0.1,1.1-0.4,1.6
			C156.4,120.7,156,121.1,155.6,121.4z"/>
		<path class="st2" d="M164.8,114.5v4.6h-1.6v-11.8h4.3c1.3,0,2.3,0.3,3,1c0.7,0.7,1.1,1.5,1.1,2.6c0,1.1-0.4,2-1.1,2.6
			c-0.7,0.6-1.7,0.9-3.1,0.9H164.8z M164.8,113.2h2.8c0.8,0,1.5-0.2,1.9-0.6c0.4-0.4,0.7-1,0.7-1.7c0-0.7-0.2-1.3-0.7-1.7
			c-0.4-0.4-1.1-0.6-1.8-0.7h-2.9V113.2z"/>
		<path class="st2" d="M177.1,119.2c-1.2,0-2.2-0.4-2.9-1.2c-0.7-0.8-1.1-1.8-1.1-3.1v-0.3c0-0.9,0.2-1.6,0.5-2.3
			c0.3-0.7,0.8-1.2,1.4-1.6c0.6-0.4,1.2-0.6,1.9-0.6c1.1,0,2,0.4,2.7,1.1c0.6,0.8,0.9,1.8,0.9,3.2v0.6h-5.9c0,0.9,0.3,1.6,0.8,2.1
			c0.5,0.5,1.1,0.8,1.8,0.8c0.5,0,1-0.1,1.3-0.3c0.4-0.2,0.7-0.5,1-0.9l0.9,0.7C179.7,118.7,178.6,119.2,177.1,119.2z M176.9,111.4
			c-0.6,0-1.1,0.2-1.5,0.7c-0.4,0.4-0.7,1.1-0.8,1.9h4.4v-0.1c0-0.8-0.2-1.4-0.6-1.8C178.1,111.6,177.6,111.4,176.9,111.4z"/>
		<path class="st2" d="M183.7,110.3l0,1.1c0.7-0.8,1.5-1.3,2.6-1.3c1.9,0,2.8,1,2.8,3.1v5.8h-1.5v-5.8c0-0.6-0.1-1.1-0.4-1.4
			c-0.3-0.3-0.7-0.5-1.3-0.5c-0.5,0-0.9,0.1-1.3,0.4c-0.4,0.3-0.7,0.6-0.9,1v6.2h-1.5v-8.8H183.7z"/>
		<path class="st2" d="M192.8,110.3l0,1.1c0.7-0.8,1.5-1.3,2.6-1.3c1.9,0,2.8,1,2.8,3.1v5.8h-1.5v-5.8c0-0.6-0.1-1.1-0.4-1.4
			c-0.3-0.3-0.7-0.5-1.3-0.5c-0.5,0-0.9,0.1-1.3,0.4c-0.4,0.3-0.7,0.6-0.9,1v6.2h-1.5v-8.8H192.8z"/>
		<path class="st2" d="M205.7,116.8c0-0.4-0.2-0.7-0.5-0.9c-0.3-0.2-0.8-0.4-1.6-0.6c-0.8-0.2-1.4-0.4-1.8-0.6
			c-0.4-0.2-0.8-0.5-1-0.8c-0.2-0.3-0.3-0.7-0.3-1.1c0-0.7,0.3-1.3,0.9-1.8c0.6-0.5,1.4-0.7,2.3-0.7c1,0,1.8,0.3,2.4,0.8
			c0.6,0.5,0.9,1.2,0.9,2h-1.5c0-0.4-0.2-0.8-0.5-1.1c-0.3-0.3-0.8-0.4-1.3-0.4c-0.5,0-1,0.1-1.3,0.4c-0.3,0.2-0.5,0.5-0.5,0.9
			c0,0.4,0.1,0.6,0.4,0.8c0.3,0.2,0.8,0.4,1.6,0.5c0.7,0.2,1.4,0.4,1.8,0.6c0.5,0.2,0.8,0.5,1,0.8s0.3,0.7,0.3,1.2
			c0,0.8-0.3,1.4-0.9,1.9c-0.6,0.5-1.4,0.7-2.4,0.7c-0.7,0-1.3-0.1-1.9-0.4c-0.5-0.2-1-0.6-1.3-1c-0.3-0.4-0.5-0.9-0.5-1.4h1.5
			c0,0.5,0.2,0.9,0.6,1.2c0.4,0.3,0.9,0.4,1.5,0.4c0.6,0,1-0.1,1.4-0.3C205.5,117.4,205.7,117.1,205.7,116.8z"/>
		<path class="st2" d="M212,116.9l2-6.6h1.6l-3.5,10.1c-0.5,1.5-1.4,2.2-2.6,2.2l-0.3,0l-0.6-0.1v-1.2l0.4,0c0.5,0,0.9-0.1,1.2-0.3
			c0.3-0.2,0.5-0.6,0.7-1.1l0.3-0.9l-3.1-8.7h1.6L212,116.9z"/>
		<path class="st2" d="M218.6,119.1h-1.5v-12.4h1.5V119.1z"/>
		<path class="st2" d="M223.9,117.1l2.2-6.7h1.5l-3.1,8.8h-1.1l-3.2-8.8h1.5L223.9,117.1z"/>
		<path class="st2" d="M234.3,119.1c-0.1-0.2-0.2-0.5-0.2-0.9c-0.7,0.7-1.5,1.1-2.5,1.1c-0.9,0-1.6-0.2-2.1-0.7
			c-0.6-0.5-0.8-1.1-0.8-1.9c0-0.9,0.3-1.6,1-2.1c0.7-0.5,1.7-0.8,2.9-0.8h1.5v-0.7c0-0.5-0.2-0.9-0.5-1.3c-0.3-0.3-0.8-0.5-1.4-0.5
			c-0.5,0-1,0.1-1.3,0.4c-0.4,0.3-0.5,0.6-0.5,1h-1.5c0-0.4,0.2-0.9,0.5-1.3c0.3-0.4,0.7-0.7,1.3-1c0.5-0.2,1.1-0.4,1.8-0.4
			c1,0,1.8,0.3,2.4,0.8c0.6,0.5,0.9,1.2,0.9,2.1v4c0,0.8,0.1,1.4,0.3,1.9v0.1H234.3z M231.8,117.9c0.5,0,0.9-0.1,1.3-0.4
			c0.4-0.2,0.7-0.6,0.9-0.9v-1.8h-1.2c-1.8,0-2.8,0.5-2.8,1.6c0,0.5,0.2,0.8,0.5,1.1C230.9,117.8,231.3,117.9,231.8,117.9z"/>
		<path class="st2" d="M239.4,110.3l0,1.1c0.7-0.8,1.5-1.3,2.6-1.3c1.9,0,2.8,1,2.8,3.1v5.8h-1.5v-5.8c0-0.6-0.1-1.1-0.4-1.4
			c-0.3-0.3-0.7-0.5-1.3-0.5c-0.5,0-0.9,0.1-1.3,0.4c-0.4,0.3-0.7,0.6-0.9,1v6.2h-1.5v-8.8H239.4z"/>
		<path class="st2" d="M247.1,108c0-0.2,0.1-0.4,0.2-0.6c0.1-0.2,0.4-0.3,0.7-0.3s0.5,0.1,0.7,0.3s0.2,0.4,0.2,0.6
			c0,0.2-0.1,0.4-0.2,0.6c-0.2,0.2-0.4,0.2-0.7,0.2s-0.5-0.1-0.7-0.2C247.2,108.4,247.1,108.2,247.1,108z M248.7,119.1h-1.5v-8.8
			h1.5V119.1z"/>
		<path class="st2" d="M256.5,119.1c-0.1-0.2-0.2-0.5-0.2-0.9c-0.7,0.7-1.5,1.1-2.5,1.1c-0.9,0-1.6-0.2-2.1-0.7
			c-0.6-0.5-0.8-1.1-0.8-1.9c0-0.9,0.3-1.6,1-2.1c0.7-0.5,1.7-0.8,2.9-0.8h1.5v-0.7c0-0.5-0.2-0.9-0.5-1.3c-0.3-0.3-0.8-0.5-1.4-0.5
			c-0.5,0-1,0.1-1.3,0.4c-0.4,0.3-0.5,0.6-0.5,1H251c0-0.4,0.2-0.9,0.5-1.3c0.3-0.4,0.7-0.7,1.3-1c0.5-0.2,1.1-0.4,1.8-0.4
			c1,0,1.8,0.3,2.4,0.8s0.9,1.2,0.9,2.1v4c0,0.8,0.1,1.4,0.3,1.9v0.1H256.5z M254,117.9c0.5,0,0.9-0.1,1.3-0.4
			c0.4-0.2,0.7-0.6,0.9-0.9v-1.8h-1.2c-1.8,0-2.8,0.5-2.8,1.6c0,0.5,0.2,0.8,0.5,1.1C253.1,117.8,253.5,117.9,254,117.9z"/>
	</g>
</g>
</svg>
