<?xml version="1.0" encoding="utf-8"?>
<!-- Generator: Adobe Illustrator 22.1.0, SVG Export Plug-In . SVG Version: 6.00 Build 0)  -->
<svg version="1.1" id="Layer_1" xmlns="http://www.w3.org/2000/svg" xmlns:xlink="http://www.w3.org/1999/xlink" x="0px" y="0px"
	 viewBox="0 0 300 300" style="enable-background:new 0 0 300 300;" xml:space="preserve">
<style type="text/css">
	.st0{fill:none;stroke:#FA8231;stroke-width:10;stroke-miterlimit:10;}
	.st1{fill:none;stroke:#FA8231;stroke-width:10;stroke-linecap:round;stroke-linejoin:round;stroke-miterlimit:10;}
	.st2{fill:none;stroke:#FA8231;stroke-width:10;stroke-linecap:round;stroke-miterlimit:10;}
	.st3{fill:#FA8231;}
</style>
<circle id="outer-circle" class="st0" cx="150" cy="150" r="140.7"/>
<rect id="rectangle" x="111.7" y="212.7" class="st1" width="76.6" height="27"/>
<path id="pen-tip" class="st2" d="M150,193.6h37.1c0.7,0,1.4-0.4,1.8-1.1l20.2-39.1c0.3-0.6,0.3-1.3,0-1.9l-50-90.2
	c-0.4-0.6-1-1-1.7-1l-14.7-0.1c-0.7,0-1.4,0.4-1.7,1l-50,90.2c-0.3,0.6-0.3,1.3,0,1.9l20.2,39.1c0.3,0.7,1,1.1,1.8,1.1L150,193.6z"
	/>
<path id="pen-tip-line" class="st2" d="M149.9,60.2v82V60.2z"/>
<circle id="pen-tip-circle" class="st3" cx="149.9" cy="142.2" r="8.8"/>
</svg>
